<?xml version="1.0" encoding="iso-8859-1"?>
<!-- Uploaded to: SVG Repo, www.svgrepo.com, Generator: SVG Repo Mixer Tools -->
<svg fill="#31A3F5" opacity="0.2" height="800px" width="800px" id="Layer_1" xmlns="http://www.w3.org/2000/svg"
	 viewBox="0 0 496 496">
<g>
	<g>
		<g>
			<path d="M489.688,282.24c-4.08-3.896-9.464-5.968-15.064-5.672L312,283.648V276c0-3.008-0.28-5.952-0.688-8.856l57.68-7.208
				l-1.984-15.872l-59.888,7.488c-0.92-2.224-1.968-4.376-3.12-6.464V244h-0.656c-7.144-12.304-18.24-22.008-31.56-27.368
				L263.448,100H232.56l-8.328,116.632c-13.328,5.36-24.424,15.064-31.56,27.368H192v1.088c-1.16,2.088-2.2,4.24-3.12,6.464
				l-59.888-7.488l-1.984,15.872l57.68,7.208C184.28,270.048,184,272.992,184,276v7.648l-162.632-7.08
				c-5.744-0.208-10.984,1.784-15.056,5.672C2.24,286.152,0,291.4,0,297.04c0,10.264,7.672,18.992,17.832,20.304l46.968,6.128
				C64.304,326.24,64,329.088,64,332c0,26.472,21.528,48,48,48c25.168,0,45.824-19.472,47.808-44.136l26.016,3.392
				C188.48,344.424,193.808,348,200,348h40v16h-16v32h16v-16h16v16h16v-32h-16v-16h40c6.192,0,11.52-3.576,14.176-8.744
				l26.016-3.392C338.176,360.528,358.832,380,384,380c26.472,0,48-21.528,48-48c0-2.912-0.304-5.752-0.8-8.528l46.96-6.12
				c10.168-1.32,17.84-10.048,17.84-20.312C496,291.4,493.76,286.152,489.688,282.24z M70.448,308.08l-50.56-6.6
				c-2.216-0.288-3.888-2.2-3.888-4.44c0-1.664,0.864-2.752,1.384-3.24c0.512-0.504,1.792-1.136,3.288-1.24l60.576,2.632
				C76.928,298.8,73.28,303.176,70.448,308.08z M112,364c-17.648,0-32-14.352-32-32s14.352-32,32-32s32,14.352,32,32
				S129.648,364,112,364z M184,322.888l-25.696-3.352c-2.232-8.264-6.568-15.664-12.464-21.536l38.16,1.656V322.888z M296,276h-40
				v-16h37.2C294.984,265.016,296,270.384,296,276z M247.448,116h1.112l6.888,96.472C253,212.184,250.52,212,248,212
				c-2.52,0-5,0.184-7.448,0.472L247.448,116z M248,228c14.168,0,26.88,6.208,35.68,16h-71.36C221.12,234.208,233.832,228,248,228z
				 M202.8,260H240v16h-40C200,270.384,201.024,265.016,202.8,260z M200,332v-40h96.008l0.008,40H200z M337.696,319.536L312,322.888
				v-23.232l38.16-1.664C344.256,303.872,339.928,311.272,337.696,319.536z M384,364c-17.648,0-32-14.352-32-32s14.352-32,32-32
				s32,14.352,32,32S401.648,364,384,364z M476.104,301.488l-50.552,6.592c-2.832-4.904-6.48-9.272-10.8-12.888l60.568-2.632
				c1.552-0.024,2.784,0.744,3.296,1.24c0.52,0.488,1.384,1.576,1.384,3.24C480,299.28,478.328,301.192,476.104,301.488z"/>
			<path d="M384,308c-13.232,0-24,10.768-24,24s10.768,24,24,24s24-10.768,24-24S397.232,308,384,308z M384,340
				c-4.416,0-8-3.584-8-8c0-4.416,3.584-8,8-8c4.416,0,8,3.584,8,8C392,336.416,388.416,340,384,340z"/>
			<path d="M112,308c-13.232,0-24,10.768-24,24s10.768,24,24,24s24-10.768,24-24S125.232,308,112,308z M112,340
				c-4.416,0-8-3.584-8-8c0-4.416,3.584-8,8-8s8,3.584,8,8C120,336.416,116.416,340,112,340z"/>
		</g>
	</g>
</g>
</svg>
